<svg xmlns="http://www.w3.org/2000/svg" viewBox="0 0 512 512">
  <defs>
    <linearGradient id="bg" x1="74" y1="52" x2="438" y2="466" gradientUnits="userSpaceOnUse">
      <stop stop-color="#b4a7ff"/>
      <stop offset=".5" stop-color="#806be8"/>
      <stop offset="1" stop-color="#45c9b7"/>
    </linearGradient>
    <filter id="shadow" x="-30%" y="-30%" width="160%" height="160%"><feDropShadow dx="0" dy="18" stdDeviation="20" flood-color="#171328" flood-opacity=".3"/></filter>
  </defs>
  <rect width="512" height="512" rx="118" fill="#11131a"/>
  <rect x="54" y="54" width="404" height="404" rx="100" fill="url(#bg)"/>
  <path d="M151 365V147c0-20 16-36 36-36h137c20 0 36 16 36 36v218c0 20-16 36-36 36H187c-20 0-36-16-36-36Z" fill="#f9f8fd" filter="url(#shadow)"/>
  <path d="M209 195h105M209 245h86M209 295h105" fill="none" stroke="#a29bb7" stroke-width="17" stroke-linecap="round"/>
  <path d="M189 341c27-51 45-51 54-3 10 51 29 34 40-4 12-43 31-39 39 4" fill="none" stroke="#725ce1" stroke-width="15" stroke-linecap="round" stroke-linejoin="round"/>
</svg>
