<svg xmlns="http://www.w3.org/2000/svg" viewBox="0 0 512 512">
  <defs>
    <linearGradient id="g" x1="58" y1="30" x2="448" y2="470" gradientUnits="userSpaceOnUse">
      <stop stop-color="#8b7cff"/>
      <stop offset="1" stop-color="#45d6bd"/>
    </linearGradient>
    <filter id="s" x="-20%" y="-20%" width="140%" height="140%">
      <feDropShadow dx="0" dy="18" stdDeviation="20" flood-opacity=".28"/>
    </filter>
  </defs>
  <rect width="512" height="512" rx="116" fill="#11131a"/>
  <path filter="url(#s)" d="M115 92h223c33 0 59 26 59 59v214c0 30-24 55-55 55H158c-24 0-43-19-43-43V92Z" fill="url(#g)"/>
  <path d="M169 92h170c32 0 58 26 58 58v213c-17-13-37-19-59-19H169V92Z" fill="#f7f5ff"/>
  <path d="M204 157h126M204 211h126M204 265h78" fill="none" stroke="#696078" stroke-width="18" stroke-linecap="round" opacity=".75"/>
  <path d="m279 339 92-92c8-8 22-8 30 0l19 19c8 8 8 22 0 30l-92 92-57 14 8-63Z" fill="#1b1e29" stroke="#f7f5ff" stroke-width="9" stroke-linejoin="round"/>
  <path d="m363 256 47 47" stroke="#8b7cff" stroke-width="14"/>
</svg>
